<?xml version="1.0" standalone="no"?>
<!DOCTYPE svg PUBLIC "-//W3C//DTD SVG 20010904//EN"
 "http://www.w3.org/TR/2001/REC-SVG-20010904/DTD/svg10.dtd">
<svg version="1.0" xmlns="http://www.w3.org/2000/svg"
 width="400.000000pt" height="400.000000pt" viewBox="0 0 400.000000 400.000000"
 preserveAspectRatio="xMidYMid meet">

<g transform="translate(0.000000,400.000000) scale(0.100000,-0.100000)"
fill="#000000" stroke="none">
<path d="M1850 3580 c-155 -15 -319 -58 -460 -121 -620 -275 -1002 -926 -941
-1606 36 -403 189 -733 465 -1008 228 -226 487 -365 799 -427 132 -26 393 -31
517 -10 646 113 1139 582 1288 1227 200 868 -352 1745 -1208 1920 -131 27
-331 37 -460 25z m-160 -505 c345 -56 1194 -284 1341 -361 52 -27 69 -132 85
-549 9 -233 -11 -650 -34 -720 l-17 -50 -80 2 c-45 2 -142 16 -220 34 -77 17
-158 35 -180 39 -22 5 -48 12 -57 15 -16 7 -18 -1 -18 -87 0 -211 -29 -446
-57 -470 -16 -13 -167 2 -263 26 -30 8 -102 24 -160 37 -396 85 -966 250
-1063 306 -65 38 -82 183 -82 698 0 381 8 513 36 594 10 27 15 31 49 31 45 0
268 -40 412 -74 69 -16 101 -20 103 -12 2 6 6 90 9 186 6 181 18 295 37 343
14 32 25 33 159 12z"/>
<path d="M1503 2263 c7 -254 26 -429 50 -467 11 -17 49 -35 129 -64 131 -46
439 -135 648 -187 80 -20 151 -38 159 -41 25 -8 2 506 -30 664 -9 46 -15 55
-47 71 -37 18 -199 74 -302 104 -201 59 -182 54 -385 107 -44 12 -103 28 -131
36 -28 8 -61 14 -74 14 l-23 0 6 -237z"/>
</g>
</svg>
